<svg xmlns="http://www.w3.org/2000/svg" xmlns:xlink="http://www.w3.org/1999/xlink" width="872" zoomAndPan="magnify" viewBox="0 0 654 269.999989" height="360" preserveAspectRatio="xMidYMid meet" version="1.0"><defs><clipPath id="cbc3115d56"><path d="M 109 152 L 140 152 L 140 183 L 109 183 Z M 109 152 " clip-rule="nonzero"/></clipPath><clipPath id="4e9f981a67"><path d="M 112.269531 152.820312 L 139.527344 180.082031 L 136.878906 182.734375 L 109.617188 155.472656 Z M 112.269531 152.820312 " clip-rule="nonzero"/></clipPath><clipPath id="f44728e7af"><path d="M 85 175 L 116 175 L 116 206 L 85 206 Z M 85 175 " clip-rule="nonzero"/></clipPath><clipPath id="dca3c78a9b"><path d="M 87.96875 175.171875 L 115.230469 202.429688 L 112.578125 205.082031 L 85.320312 177.824219 Z M 87.96875 175.171875 " clip-rule="nonzero"/></clipPath><clipPath id="5df40e1cfc"><path d="M 128 94 L 164 94 L 164 118 L 128 118 Z M 128 94 " clip-rule="nonzero"/></clipPath><clipPath id="db538464ce"><path d="M 163.34375 98.027344 L 130.222656 117.746094 L 128.300781 114.527344 L 161.425781 94.804688 Z M 163.34375 98.027344 " clip-rule="nonzero"/></clipPath></defs><path fill="#de7f12" d="M 94.1875 35.335938 L 92.167969 36.921875 L 92.300781 51.121094 C 92.371094 58.929688 92.289062 65.460938 92.113281 65.636719 C 91.9375 65.8125 91.007812 61.15625 90.046875 55.289062 C 89.089844 49.425781 88.140625 44.203125 87.945312 43.6875 C 87.75 43.171875 87.171875 42.75 86.660156 42.75 C 86.148438 42.75 83.695312 44.066406 81.203125 45.675781 C 78.714844 47.285156 74.863281 50.449219 72.648438 52.703125 C 70.4375 54.957031 67.363281 58.941406 65.824219 61.554688 C 64.28125 64.167969 62.3125 68.4375 61.445312 71.039062 C 60.300781 74.476562 59.1875 76.292969 57.375 77.675781 C 56.003906 78.722656 54.660156 80.152344 54.390625 80.851562 C 54.121094 81.550781 53.726562 83.382812 53.511719 84.917969 C 53.296875 86.457031 53.507812 88.886719 53.980469 90.320312 C 54.46875 91.796875 55.507812 93.140625 56.371094 93.414062 C 57.214844 93.679688 61.160156 93.511719 65.140625 93.035156 C 69.121094 92.5625 83.175781 91.898438 96.375 91.5625 C 109.574219 91.226562 128.632812 90.898438 138.730469 90.828125 C 153.582031 90.726562 157.410156 90.492188 158.792969 89.585938 C 159.882812 88.867188 160.496094 87.726562 160.488281 86.421875 C 160.484375 85.296875 160.277344 83.621094 160.03125 82.695312 C 159.78125 81.773438 158.480469 80.335938 157.136719 79.507812 C 155.175781 78.296875 154.289062 76.847656 152.652344 72.1875 C 151.53125 68.992188 149.40625 64.179688 147.925781 61.5 C 146.445312 58.820312 143.1875 54.46875 140.679688 51.832031 C 138.175781 49.195312 134.324219 45.875 132.125 44.457031 C 129.925781 43.035156 128.042969 41.988281 127.941406 42.125 C 127.839844 42.261719 127.371094 43.386719 126.894531 44.625 C 126.421875 45.863281 125.199219 51.050781 124.179688 56.152344 C 123.160156 61.253906 122.210938 65.539062 122.078125 65.671875 C 121.941406 65.808594 121.84375 59.496094 121.851562 51.648438 L 121.875 37.378906 L 119.769531 35.5625 C 117.757812 33.828125 117.203125 33.75 106.933594 33.75 C 97.144531 33.75 96.027344 33.890625 94.1875 35.335938 M 72.847656 100.90625 C 70.222656 101.476562 66.003906 102.925781 63.472656 104.128906 C 60.945312 105.335938 57.1875 107.800781 55.125 109.613281 C 53.0625 111.425781 49.125 115.261719 46.371094 118.140625 C 43.621094 121.019531 41.140625 124.300781 40.855469 125.429688 C 40.574219 126.558594 39.179688 128.503906 37.757812 129.75 C 35.964844 131.328125 34.511719 131.96875 32.992188 131.851562 C 31.546875 131.742188 30.132812 132.308594 28.8125 133.53125 C 27.714844 134.542969 24.832031 137.394531 22.410156 139.867188 C 19.929688 142.390625 18.007812 145.015625 18.019531 145.867188 C 18.027344 146.753906 21.273438 150.683594 25.914062 155.4375 C 30.246094 159.871094 34.15625 163.5 34.601562 163.5 C 35.046875 163.5 37.90625 161.078125 40.960938 158.117188 C 45.140625 154.066406 46.710938 151.976562 47.300781 149.679688 C 47.734375 148 48.25 146.066406 48.445312 145.382812 C 48.644531 144.703125 49.941406 143.605469 51.328125 142.945312 C 52.714844 142.289062 55.25 141.75 56.957031 141.75 C 58.664062 141.75 61.3125 142.402344 62.84375 143.199219 C 64.371094 144 69.359375 148.640625 73.925781 153.511719 C 78.492188 158.386719 85.726562 166.257812 90.007812 171 C 94.285156 175.742188 98.179688 179.960938 98.660156 180.375 C 99.140625 180.789062 110.429688 193.273438 123.75 208.125 C 137.070312 222.976562 149.546875 236.835938 151.480469 238.929688 C 153.414062 241.023438 155.757812 243.269531 156.695312 243.925781 C 157.996094 244.839844 158.894531 244.949219 160.492188 244.390625 C 161.640625 243.988281 165.382812 240.828125 168.804688 237.363281 C 172.226562 233.898438 175.3125 230.558594 175.660156 229.9375 C 176.007812 229.316406 176.082031 227.972656 175.828125 226.953125 C 175.546875 225.839844 156.746094 206.707031 128.617188 178.910156 C 93.847656 144.554688 81.445312 131.847656 80.21875 129.3125 C 79.023438 126.839844 78.691406 125.148438 79.015625 123.15625 C 79.261719 121.644531 80.082031 119.578125 80.839844 118.5625 C 81.597656 117.546875 83.109375 116.050781 84.203125 115.234375 C 85.402344 114.339844 87.824219 113.617188 90.328125 113.410156 C 92.847656 113.203125 96.667969 113.585938 100.089844 114.390625 C 104.65625 115.464844 105.925781 115.535156 106.855469 114.765625 C 107.484375 114.242188 108 113.390625 108 112.871094 C 108 112.351562 106.601562 110.660156 104.890625 109.117188 C 103.179688 107.570312 99.707031 105.367188 97.167969 104.214844 C 94.632812 103.066406 89.972656 101.589844 86.808594 100.9375 C 83.648438 100.285156 80.289062 99.777344 79.34375 99.808594 C 78.398438 99.84375 75.476562 100.335938 72.847656 100.90625 M 146.25 107.625 C 146.25 107.832031 146.417969 108 146.625 108 C 146.832031 108 147 107.832031 147 107.625 C 147 107.417969 146.832031 107.25 146.625 107.25 C 146.417969 107.25 146.25 107.417969 146.25 107.625 M 114 155.625 C 114 155.832031 114.167969 156 114.375 156 C 114.582031 156 114.75 155.832031 114.75 155.625 C 114.75 155.417969 114.582031 155.25 114.375 155.25 C 114.167969 155.25 114 155.417969 114 155.625 M 133 176 C 133.273438 176.273438 133.726562 176.273438 134 176 C 134.273438 175.726562 134.050781 175.5 133.5 175.5 C 132.949219 175.5 132.726562 175.726562 133 176 M 89.554688 180.867188 C 89.222656 181.402344 89.347656 181.527344 89.882812 181.195312 C 90.359375 180.902344 90.75 180.511719 90.75 180.332031 C 90.75 180.148438 90.601562 180 90.417969 180 C 90.238281 180 89.847656 180.390625 89.554688 180.867188 M 97.5 187.785156 C 97.5 187.9375 98.089844 188.53125 98.8125 189.097656 C 100.003906 190.027344 100.027344 190.003906 99.097656 188.8125 C 98.53125 188.089844 97.9375 187.5 97.785156 187.5 C 97.628906 187.5 97.5 187.628906 97.5 187.785156 " fill-opacity="1" fill-rule="evenodd"/><path fill="#414749" d="M 607.488281 99.257812 C 605.21875 99.753906 602.109375 100.929688 600.585938 101.871094 C 599.058594 102.8125 596.941406 104.617188 595.878906 105.882812 C 594.816406 107.148438 593.425781 109.40625 592.789062 110.902344 C 592.15625 112.398438 591.34375 115.394531 590.984375 117.554688 C 590.589844 119.925781 590.625 123.347656 591.066406 126.179688 C 591.472656 128.761719 592.6875 132.632812 593.761719 134.78125 C 594.863281 136.992188 598.035156 140.953125 601.042969 143.890625 C 603.976562 146.746094 608.570312 150.902344 611.25 153.117188 C 614.546875 155.847656 616.808594 158.480469 618.238281 161.261719 C 619.828125 164.355469 620.265625 166.078125 619.996094 168.214844 C 619.796875 169.777344 619.109375 171.859375 618.46875 172.839844 C 617.824219 173.816406 616.285156 174.84375 615.042969 175.117188 C 613.800781 175.386719 612.132812 175.40625 611.332031 175.152344 C 610.535156 174.898438 609.304688 173.804688 608.597656 172.726562 C 607.878906 171.632812 607.136719 168.625 606.921875 165.960938 L 606.539062 161.160156 L 600.832031 161.542969 C 597.691406 161.753906 594.195312 161.941406 593.0625 161.964844 C 591.046875 162 591 162.101562 591 166.472656 C 591 168.933594 591.546875 172.5625 592.21875 174.535156 C 592.886719 176.511719 594.417969 179.550781 595.617188 181.296875 C 596.816406 183.039062 599.222656 185.300781 600.964844 186.320312 C 602.703125 187.339844 606.503906 188.566406 609.40625 189.046875 C 613.871094 189.78125 615.429688 189.726562 619.527344 188.679688 C 622.195312 188 625.644531 186.605469 627.195312 185.582031 C 628.742188 184.558594 630.988281 182.371094 632.183594 180.722656 C 633.378906 179.070312 634.769531 176.007812 635.269531 173.914062 C 635.785156 171.777344 636.035156 167.585938 635.839844 164.363281 C 635.589844 160.15625 634.941406 157.460938 633.417969 154.253906 C 632.144531 151.582031 629.394531 147.9375 626.347656 144.878906 C 623.605469 142.125 618.910156 137.734375 615.910156 135.121094 C 612.914062 132.503906 609.796875 129.058594 608.980469 127.460938 C 608.101562 125.742188 607.5 123.0625 607.5 120.882812 C 607.5 118.347656 607.964844 116.613281 608.988281 115.308594 C 609.804688 114.269531 611.328125 113.203125 612.371094 112.941406 C 613.484375 112.664062 615.164062 112.933594 616.453125 113.601562 C 617.65625 114.222656 618.886719 115.496094 619.1875 116.429688 C 619.484375 117.363281 619.929688 119.957031 620.175781 122.195312 L 620.625 126.265625 L 625.875 126.101562 C 628.761719 126.011719 632.265625 125.738281 633.664062 125.492188 L 636.199219 125.046875 L 635.804688 119.28125 C 635.523438 115.191406 634.863281 112.441406 633.523438 109.820312 C 632.488281 107.789062 630.679688 105.214844 629.507812 104.101562 C 628.335938 102.992188 625.855469 101.425781 624 100.625 C 622.144531 99.828125 618.601562 98.988281 616.125 98.765625 C 613.648438 98.542969 609.765625 98.765625 607.488281 99.257812 M 235.3125 100.324219 L 217.5 100.527344 L 217.5 187.5 L 234.722656 187.5 L 234.550781 169.5 L 234.375 151.5 L 251.25 151.5 L 251.25 138 L 243.75 137.90625 C 239.625 137.855469 235.828125 137.769531 235.3125 137.71875 C 234.617188 137.648438 234.320312 134.664062 234.167969 126.1875 L 233.960938 114.75 L 254.25 114.75 L 254.25 107.667969 C 254.25 103.773438 253.996094 100.484375 253.6875 100.355469 C 253.378906 100.230469 245.109375 100.214844 235.3125 100.324219 M 262.0625 100.4375 C 261.890625 100.609375 261.75 120.269531 261.75 144.125 L 261.75 187.5 L 300.75 187.5 L 300.75 173.25 L 278.25 173.25 L 278.25 150.75 L 295.5 150.75 L 295.5 137.25 L 278.25 137.25 L 278.25 114.75 L 289.109375 114.75 C 299.765625 114.75 299.980469 114.71875 300.398438 113.054688 C 300.632812 112.121094 300.722656 108.902344 300.597656 105.898438 L 300.375 100.441406 L 281.375 100.285156 C 270.925781 100.195312 262.234375 100.265625 262.0625 100.4375 M 309 143.8125 L 309 187.5 L 325.5 187.5 L 325.5 154.40625 L 327.851562 154.640625 L 330.199219 154.875 L 334.863281 171 L 339.523438 187.125 L 348.207031 187.335938 L 356.894531 187.546875 L 355.011719 181.335938 C 353.980469 177.921875 351.472656 169.957031 349.441406 163.636719 C 347.410156 157.316406 345.753906 151.917969 345.757812 151.636719 C 345.765625 151.355469 346.910156 150.382812 348.308594 149.480469 C 349.855469 148.480469 351.597656 146.28125 352.761719 143.855469 C 353.859375 141.578125 355.019531 137.308594 355.472656 133.875 C 356.003906 129.863281 356.027344 126.011719 355.542969 122.25 C 355.144531 119.15625 354.414062 115.445312 353.914062 114 C 353.417969 112.554688 352.085938 110.011719 350.953125 108.347656 C 349.746094 106.566406 347.242188 104.402344 344.886719 103.101562 C 340.875 100.882812 340.875 100.882812 324.9375 100.503906 L 308.996094 100.125 L 309 143.8125 M 467.25 143.8125 L 467.25 187.5 L 482.410156 187.5 L 482.042969 160.6875 C 481.835938 145.675781 481.953125 134.535156 482.308594 135.375 C 482.660156 136.199219 484.96875 145.167969 487.441406 155.300781 C 489.910156 165.433594 492.277344 174.632812 492.699219 175.738281 C 493.394531 177.574219 493.8125 177.75 497.476562 177.75 L 501.492188 177.75 L 506.96875 156.5625 C 509.976562 144.910156 512.652344 134.804688 512.90625 134.109375 C 513.164062 133.414062 513.328125 145.140625 513.265625 160.171875 L 513.15625 187.5 L 528 187.5 L 528 143.8125 L 528.003906 100.125 L 509.285156 100.585938 L 508.554688 103.355469 C 508.152344 104.878906 505.777344 114.394531 503.273438 124.5 C 500.769531 134.605469 498.457031 143.511719 498.136719 144.292969 C 497.730469 145.269531 495.808594 138.6875 491.960938 123.152344 L 486.375 100.59375 L 476.8125 100.359375 L 467.246094 100.125 L 467.25 143.8125 M 365.824219 144.023438 L 366.023438 187.550781 L 374.074219 187.339844 L 382.125 187.125 L 382.054688 154.5 L 384.492188 154.5 C 386.605469 154.5 387.019531 154.824219 387.605469 156.9375 C 387.976562 158.277344 390.09375 165.703125 392.316406 173.4375 L 396.351562 187.5 L 413.804688 187.5 L 408.007812 169.6875 L 402.214844 151.875 L 404.644531 150.128906 C 405.980469 149.171875 407.921875 146.808594 408.957031 144.878906 C 409.992188 142.953125 411.210938 139.585938 411.667969 137.402344 C 412.125 135.214844 412.496094 130.660156 412.492188 127.277344 C 412.488281 123.890625 412.03125 119.4375 411.480469 117.375 C 410.929688 115.3125 409.761719 112.222656 408.886719 110.511719 C 408.011719 108.796875 406.019531 106.339844 404.460938 105.050781 C 402.902344 103.761719 399.960938 102.210938 397.925781 101.601562 C 395.234375 100.800781 390.339844 100.5 379.925781 100.5 L 365.625 100.5 L 365.824219 144.023438 M 421.5 144 L 421.5 187.5 L 459.75 187.5 L 459.75 173.25 L 437.535156 173.25 L 437.371094 162 L 437.210938 150.75 L 454.5 150.75 L 454.5 137.25 L 437.183594 137.25 L 437.40625 125.902344 L 437.625 114.554688 L 459.375 114.375 L 459.804688 100.5 L 421.5 100.5 L 421.5 144 M 550.828125 103.3125 C 550.558594 104.859375 549.175781 112.199219 547.757812 119.625 C 546.335938 127.050781 543.1875 143.425781 540.753906 156.015625 C 538.324219 168.605469 535.988281 180.417969 535.5625 182.265625 C 535.132812 184.113281 534.777344 186.046875 534.769531 186.5625 C 534.753906 187.253906 536.785156 187.5 542.484375 187.5 L 550.214844 187.5 L 551.578125 179.328125 C 552.328125 174.832031 553.179688 170.765625 553.472656 170.296875 C 553.824219 169.726562 556.355469 169.511719 561.03125 169.65625 L 568.0625 169.875 L 571.125 187.125 L 579.1875 187.339844 C 583.621094 187.453125 587.25 187.285156 587.25 186.964844 C 587.25 186.640625 583.730469 168.65625 579.425781 147 C 575.125 125.34375 571.371094 106.023438 571.089844 104.0625 L 570.578125 100.5 L 551.316406 100.5 L 550.828125 103.3125 M 150.855469 105.859375 C 149.46875 106.257812 147.105469 107.363281 145.605469 108.3125 C 144.101562 109.261719 141.453125 111.582031 139.71875 113.46875 C 137.984375 115.355469 136.011719 118.1875 135.34375 119.761719 C 134.671875 121.335938 133.894531 125.890625 133.617188 129.878906 L 133.109375 137.136719 L 123.742188 146.617188 C 118.589844 151.832031 114.222656 156.257812 114.035156 156.449219 C 113.851562 156.644531 117.894531 161.007812 123.027344 166.152344 C 128.15625 171.292969 132.921875 175.5 133.621094 175.5 C 134.316406 175.5 138.988281 171.152344 144.003906 165.835938 L 153.121094 156.171875 L 159.25 156.539062 C 164.289062 156.839844 166.125 156.621094 169.597656 155.308594 C 172.609375 154.167969 174.933594 152.53125 177.703125 149.605469 C 179.835938 147.351562 182.449219 143.605469 183.511719 141.285156 C 184.964844 138.113281 185.46875 135.730469 185.535156 131.71875 C 185.585938 128.78125 185.378906 125.777344 185.078125 125.042969 C 184.625 123.933594 183.1875 125.011719 176.570312 131.417969 C 172.191406 135.65625 168.050781 139.339844 167.367188 139.605469 C 166.683594 139.867188 165.113281 139.902344 163.875 139.683594 C 162.636719 139.464844 160.445312 138.691406 159 137.964844 C 157.554688 137.238281 155.628906 135.84375 154.714844 134.863281 C 153.796875 133.882812 152.53125 131.617188 151.902344 129.820312 C 151.265625 128.027344 150.75 125.675781 150.75 124.59375 C 150.753906 123.136719 152.695312 120.554688 158.25 114.628906 C 162.375 110.230469 165.75 106.265625 165.75 105.816406 C 165.75 105.289062 163.5625 105.023438 159.5625 105.066406 C 156.160156 105.105469 152.242188 105.460938 150.855469 105.859375 M 325.5 127.5 L 325.5 141 L 328.386719 141 C 329.976562 141 332.347656 140.625 333.660156 140.167969 C 335.050781 139.683594 336.574219 138.355469 337.316406 136.980469 C 338.257812 135.238281 338.589844 132.773438 338.589844 127.5 C 338.589844 122.175781 338.261719 119.765625 337.292969 117.972656 C 336.386719 116.292969 335.148438 115.335938 333.1875 114.789062 C 331.640625 114.359375 329.277344 114.007812 327.9375 114.003906 L 325.5 114 L 325.5 127.5 M 382.023438 127.5 L 381.921875 141 L 384.859375 141 C 386.476562 141 388.980469 140.503906 390.425781 139.902344 C 392.210938 139.15625 393.40625 137.960938 394.152344 136.175781 C 394.835938 134.539062 395.25 131.039062 395.25 126.886719 C 395.25 121.207031 395 119.851562 393.554688 117.703125 C 392.621094 116.320312 391.019531 114.953125 389.992188 114.667969 C 388.964844 114.382812 386.773438 114.117188 385.125 114.074219 L 382.125 114 L 382.023438 127.5 M 558.453125 138.898438 C 557.277344 145.621094 556.152344 152.054688 555.941406 153.1875 L 555.5625 155.25 L 565.566406 155.25 L 565.121094 152.8125 C 564.878906 151.472656 563.753906 145.042969 562.628906 138.523438 L 560.582031 126.671875 L 558.453125 138.898438 M 70.664062 199.6875 C 60.199219 210.101562 50.988281 219.878906 50.191406 221.40625 C 49.246094 223.230469 48.75 225.710938 48.75 228.609375 C 48.75 232.320312 49.105469 233.519531 50.984375 236.109375 C 52.214844 237.808594 54.0625 239.746094 55.09375 240.421875 C 56.125 241.097656 58.238281 241.945312 59.796875 242.304688 C 61.765625 242.761719 63.761719 242.636719 66.375 241.886719 C 69.800781 240.90625 71.785156 239.152344 89.25 221.652344 C 99.769531 211.117188 108.472656 201.886719 108.59375 201.140625 C 108.734375 200.28125 105.636719 196.328125 100.066406 190.269531 C 95.257812 185.035156 90.953125 180.75 90.507812 180.75 C 90.058594 180.75 81.128906 189.273438 70.664062 199.6875 M 61.0625 222.105469 C 59.679688 222.476562 58.398438 223.5 57.875 224.648438 C 57.394531 225.707031 57 227.492188 57 228.617188 C 57 229.746094 57.507812 231.390625 58.125 232.273438 C 58.746094 233.15625 60.238281 234.097656 61.445312 234.363281 C 62.832031 234.667969 64.480469 234.410156 65.910156 233.671875 C 67.550781 232.824219 68.320312 231.769531 68.671875 229.890625 C 69.023438 228.019531 68.769531 226.621094 67.769531 224.914062 C 67 223.609375 65.699219 222.304688 64.875 222.011719 C 64.050781 221.722656 62.335938 221.765625 61.0625 222.105469 " fill-opacity="1" fill-rule="evenodd"/><g clip-path="url(#cbc3115d56)"><g clip-path="url(#4e9f981a67)"><path fill="#ffffff" d="M 112.269531 152.820312 L 139.53125 180.085938 L 136.882812 182.734375 L 109.617188 155.472656 Z M 112.269531 152.820312 " fill-opacity="1" fill-rule="nonzero"/></g></g><g clip-path="url(#f44728e7af)"><g clip-path="url(#dca3c78a9b)"><path fill="#ffffff" d="M 87.96875 175.171875 L 115.234375 202.433594 L 112.582031 205.085938 L 85.320312 177.824219 Z M 87.96875 175.171875 " fill-opacity="1" fill-rule="nonzero"/></g></g><g clip-path="url(#5df40e1cfc)"><g clip-path="url(#db538464ce)"><path fill="#ffffff" d="M 163.34375 98.027344 L 130.21875 117.75 L 128.296875 114.527344 L 161.425781 94.804688 Z M 163.34375 98.027344 " fill-opacity="1" fill-rule="nonzero"/></g></g></svg>